Coordinates
version=1
nRows=19
nColumns=36
inDegrees=yes

Units are S.I. units (second, meters, Newtons, ...)
If the header above contains a line with 'inDegrees', this indicates whether rotational values are in degrees (yes) or radians (no).

endheader
time	pelvis_tilt	pelvis_list	pelvis_rotation	pelvis_tx	pelvis_ty	pelvis_tz	hip_flexion_r	hip_adduction_r	hip_rotation_r	knee_angle_r	knee_angle_r_beta	ankle_angle_r	subtalar_angle_r	mtp_angle_r	hip_flexion_l	hip_adduction_l	hip_rotation_l	knee_angle_l	knee_angle_l_beta	ankle_angle_l	subtalar_angle_l	mtp_angle_l	lumbar_extension	lumbar_bending	lumbar_rotation	arm_flex_r	arm_add_r	arm_rot_r	elbow_flex_r	pro_sup_r	arm_flex_l	arm_add_l	arm_rot_l	elbow_flex_l	pro_sup_l
      3.73333330	    -33.83355732	     -0.84246870	      0.18746422	      0.61103225	      0.72136609	      0.37897919	     85.37639523	    -14.07438188	     -2.48974109	     75.10159881	      1.31077017	     23.56060350	    -11.09601173	     -7.49999987	     87.44759067	    -12.21509715	     -0.43085664	     76.01303209	      1.32667768	     21.66054041	    -16.11395697	     -7.49999987	    -16.95771847	     -0.20746376	      1.81258831	     72.63371844	    -28.57745160	      9.11679540	    133.38008625	     86.63513559	     78.10828947	    -25.35910524	     20.89427352	    123.49098358	     86.24144584
      3.75000000	    -32.55205317	     -0.61773907	      0.17872507	      0.62149201	      0.73708114	      0.37754470	     81.69715820	    -14.03136605	     -2.97854901	     72.05722099	      1.25763576	     23.04687604	    -10.97837529	     -7.49999987	     83.43230934	    -12.03053608	     -1.11863034	     72.89266174	      1.27221695	     21.08606664	    -15.99089137	     -7.49999987	    -16.35665937	     -0.33739856	      1.35261046	     70.33734833	    -28.02655087	      8.85636423	    133.38067103	     87.25672986	     75.47305289	    -25.12383381	     19.26066128	    123.74021305	     86.36412720
      3.76666670	    -31.71538101	     -0.42719092	      0.14554795	      0.61683341	      0.74855983	      0.38048951	     78.66770700	    -13.91729289	     -3.44636280	     69.20638819	      1.20787934	     22.49163369	    -10.45710341	     -7.49999987	     80.19843171	    -12.01110488	     -1.92225810	     69.95546133	      1.22095313	     20.49684583	    -15.37228048	     -7.49999987	    -15.50065930	     -0.62312097	      1.19909961	     69.28748688	    -27.71665781	      9.21419463	    132.43349866	     88.07343825	     73.17376824	    -25.90867666	     18.39919300	    123.94707577	     86.49153337
      3.78333330	    -30.80715758	     -0.25463379	      0.03034698	      0.63258496	      0.75946181	      0.37667849	     75.21870913	    -13.78861482	     -4.11385172	     65.90863340	      1.15032266	     21.89879844	     -9.82668856	     -7.49999987	     76.58616753	    -11.84986193	     -2.60891244	     66.62367657	      1.16280252	     19.76390971	    -15.07581429	     -7.49999987	    -13.80773643	     -0.42081177	      0.30349156	     67.45649888	    -26.39839266	     10.04830278	    133.18683550	     96.33306764	     68.68065575	    -27.00041677	     15.67672818	    125.78997307	     88.56931550
      3.80000000	    -29.83781058	     -0.05962355	     -0.13508484	      0.64951959	      0.77252632	      0.37917966	     71.53408661	    -13.56414777	     -4.69083448	     62.49289868	      1.09070684	     21.38667214	     -9.22532571	     -7.49999987	     72.64356991	    -11.76587545	     -3.40513591	     63.02676503	      1.10002457	     19.10187387	    -14.20321281	     -7.49999987	    -11.81452804	     -0.72014551	      0.33679005	     63.75799451	    -26.60546854	     10.81380700	    134.55290453	     96.38573554	     64.89553312	    -27.19412160	     16.08096433	    126.97662010	     88.59325191
      3.81666670	    -28.73167544	      0.20844324	     -0.29438260	      0.66018396	      0.79086319	      0.38318736	     67.31929222	    -13.27106218	     -5.18259474	     58.61360029	      1.02300031	     20.82688069	     -8.92797588	     -7.49999987	     68.00639651	    -11.63115432	     -4.44637756	     58.76028911	      1.02556051	     18.55836546	    -13.19758976	     -7.49999987	    -10.56501558	     -1.15872412	      0.57310184	     59.86440027	    -26.75101586	     10.94710549	    136.46549142	     95.04989510	     61.02238554	    -26.67543489	     14.42469017	    129.26472862	     87.04018366
      3.83333330	    -27.76703876	      0.30315575	     -0.48541980	      0.66547377	      0.80628010	      0.38557962	     63.14485590	    -12.79803550	     -5.81347509	     54.57105937	      0.95244466	     19.99621452	     -8.68837729	     -7.49999987	     63.65487514	    -11.72890804	     -5.58986674	     54.43600282	      0.95008748	     17.68865471	    -11.64973008	     -7.49999987	     -9.35453943	     -1.41446442	      0.79982038	     56.59348487	    -26.76413929	     11.72792827	    136.23782248	     95.23453699	     57.71800446	    -26.90837807	     14.50652132	    129.60623295	     87.38880495
      3.85000000	    -27.25038614	      0.38442923	     -0.68226973	      0.66545874	      0.81379059	      0.38571842	     60.10114486	    -12.36483801	     -6.31808835	     51.24387896	      0.89437441	     19.02780597	     -8.42588878	     -7.49999987	     60.45897477	    -11.95457376	     -6.87266964	     50.93069312	      0.88890829	     17.01659187	     -9.95913077	     -7.49999987	     -7.68382620	     -1.69174564	      0.85322184	     55.00653679	    -27.12063158	     12.21183717	    135.96161742	     95.38432676	     56.10249498	    -27.35425331	     14.54158772	    129.79586602	     87.66437623
      3.86666670	    -27.07496161	      0.47618130	     -0.84261484	      0.66589841	      0.83110096	      0.38548948	     57.53734991	    -12.08602181	     -7.12462149	     47.82700000	      0.83473862	     17.89731066	     -7.97825855	     -7.49999987	     57.78715115	    -12.05803456	     -8.12165556	     47.42463092	      0.82771596	     15.95495380	     -8.87300722	     -7.49999987	     -6.07638336	     -1.86772701	      1.15189269	     53.23015286	    -27.40670346	     12.97496332	    135.01903348	     92.80185889	     53.69340624	    -27.45638149	     15.23884979	    129.21817839	     85.59601475
      3.88333330	    -26.56607836	      0.52429183	     -1.00265542	      0.67243598	      0.84222873	      0.38811629	     54.55280618	    -11.75416076	     -8.11451910	     44.34202026	      0.77391425	     16.50937255	     -7.60247005	     -7.49999987	     54.79442116	    -12.08877106	     -9.34140530	     43.79333570	      0.76433790	     14.64422092	     -7.77172752	     -7.49999987	     -4.77501217	     -2.09492872	      1.31562947	     50.35830420	    -27.66246365	     13.27402903	    134.48283407	     92.87630902	     51.06873980	    -28.21774329	     15.17270614	    129.23694750	     85.75463407
      3.90000000	    -25.63357819	      0.62116954	     -1.26865189	      0.67847360	      0.85435157	      0.38554923	     51.22264851	    -11.38617882	     -8.87000373	     40.79760540	      0.71205254	     14.92676897	     -7.27050974	     -7.49999987	     51.20102774	    -11.99893160	    -10.56827281	     39.95162280	      0.69728736	     13.41343123	     -6.69040952	     -7.49999987	     -3.79570768	     -2.18869419	      1.71262247	     47.47728222	    -27.68354763	     13.51408441	    134.53914779	     92.94459340	     47.62755064	    -28.02673861	     14.17070011	    129.12555454	     85.96166927
      3.91666670	    -25.02929633	      0.68852996	     -1.49770307	      0.68494018	      0.86291550	      0.38711295	     48.50072355	    -11.05774378	     -9.73669969	     37.62659384	      0.65670795	     13.55197730	     -6.75013384	     -7.49999987	     48.35125688	    -11.86432354	    -11.68462535	     36.62492124	      0.63922546	     12.30488555	     -5.80154058	     -7.49999987	     -2.50228923	     -2.20120833	      2.27615967	     44.69962444	    -27.88831305	     14.40764467	    135.23776254	     92.76803344	     44.37880112	    -27.92547539	     13.69132954	    129.68250471	     86.08077971
      3.93333330	    -23.28420691	      0.53855146	     -1.61425501	      0.68589613	      0.87035428	      0.38729897	     44.56142309	    -10.54842354	    -10.52245332	     34.49162286	      0.60199238	     11.93339041	     -6.74927379	     -7.49999987	     44.56642919	    -11.75199078	    -12.57346904	     33.59061932	      0.58626690	     11.43421529	     -5.24444967	     -7.49999987	     -2.51116532	     -1.99077575	      2.49916309	     43.59887040	    -28.28359735	     14.60720429	    135.13768431	     92.85931333	     42.20064728	    -27.03915108	     12.01484093	    130.32388907	     86.57791427
      3.95000000	    -22.58867051	      0.56275684	     -1.75072786	      0.68670973	      0.87648684	      0.38675337	     41.96836458	    -10.22568145	    -11.36183159	     31.42756714	      0.54851452	     10.53163368	     -6.23228026	     -7.49999987	     41.96328092	    -11.50178271	    -13.61341704	     30.53578973	      0.53295007	     10.70264473	     -4.26855755	     -7.49999987	     -1.64522286	     -1.73280699	      1.80498453	     43.47959837	    -28.01066716	     16.60294226	    134.47459137	     92.70749038	     39.35176439	    -27.69445336	     10.70216469	    131.87012552	     89.24906141
      3.96666670	    -21.85853537	      0.50490510	     -1.74678512	      0.68729815	      0.89005038	      0.38679339	     39.11560343	     -9.82441795	    -12.37983491	     27.74694477	      0.48427554	      9.05048631	     -5.73028185	     -7.49999987	     39.28364871	    -11.20728856	    -14.72644024	     27.16435447	      0.47410742	      9.33744555	     -3.51669004	     -7.49999987	     -1.42005160	     -1.64093697	      2.12789317	     41.52876260	    -28.67040964	     17.00468485	    133.71524924	     92.25865270	     37.35849407	    -27.07879420	     11.04872847	    131.79206080	     91.01195550
      3.98333330	    -21.39346285	      0.41244000	     -1.70956991	      0.69798909	      0.89791422	      0.38663422	     36.35044860	     -9.32638727	    -13.33137006	     23.90972367	      0.41730340	      7.54173728	     -4.99735050	     -7.49999987	     36.63093309	    -10.77650686	    -15.56006206	     23.51378076	      0.41039289	      7.72996975	     -2.88746675	     -7.49999987	     -0.50102273	     -1.45239951	      2.33201059	     39.17204264	    -28.96036621	     17.61874329	    133.23024330	     92.25144324	     34.67097228	    -26.32095052	     11.48097946	    131.50389420	     91.04803404
      4.00000000	    -19.77502451	      0.16913202	     -1.62969016	      0.69912626	      0.90851757	      0.38581281	     32.32957948	     -8.70011877	    -14.26789814	     19.98890790	      0.34887226	      5.77604092	     -4.15333673	     -7.49999987	     32.66246780	    -10.38303073	    -16.27798144	     19.71429535	      0.34407936	      6.54032640	     -1.68544233	     -7.49999987	     -1.11334850	     -1.19164810	      2.23130139	     36.79485618	    -29.00770903	     17.32434068	    132.69820385	     91.99195317	     32.92502559	    -25.40979923	     11.05014759	    130.56086993	     91.03119148
      4.01666670	    -18.93878986	     -0.02586245	     -1.55029315	      0.70503584	      0.91488256	      0.38757112	     29.63208485	     -8.13228531	    -14.83519610	     16.82586771	      0.29366679	      4.12663370	     -3.73928242	     -7.49999987	     29.84199699	    -10.07756429	    -16.82675434	     16.60704168	      0.28984756	      5.43403997	     -0.74100264	     -7.49999987	     -0.80079803	     -1.16034401	      1.82659345	     33.80952788	    -28.85345103	     17.19984198	    132.75305556	     91.97216190	     30.39673356	    -25.38026690	     11.18797014	    130.23219629	     91.30147008
      4.03333330	    -17.30690900	     -0.32614498	     -1.42134386	      0.71511794	      0.92418071	      0.38632737	     26.01426887	     -7.47191215	    -15.24984680	     13.47602662	      0.23520103	      2.73007049	     -3.22882677	     -7.49999987	     26.09684317	     -9.79384755	    -17.32016602	     13.40311169	      0.23392843	      4.65182424	      0.31540140	     -7.49999987	     -1.24128919	     -0.99214602	      1.90522562	     30.28802979	    -28.79221167	     16.76421353	    133.85966591	     91.64743287	     27.39472931	    -24.26924554	     11.23150848	    130.74628294	     91.47248858
